<?xml version="1.0" standalone="no"?>
<!DOCTYPE svg PUBLIC "-//W3C//DTD SVG 20010904//EN"
 "http://www.w3.org/TR/2001/REC-SVG-20010904/DTD/svg10.dtd">
<svg version="1.0" xmlns="http://www.w3.org/2000/svg"
 width="512.000000pt" height="512.000000pt" viewBox="0 0 512.000000 512.000000"
 preserveAspectRatio="xMidYMid meet">
<metadata>
Created by potrace 1.14, written by Peter Selinger 2001-2017
</metadata>
<g transform="translate(0.000000,512.000000) scale(0.100000,-0.100000)"
fill="#000000" stroke="none">
<path d="M2280 5004 c-8 -1 -62 -10 -120 -19 -58 -8 -121 -19 -140 -24 -19 -5
-66 -17 -105 -27 -207 -50 -474 -160 -655 -270 -64 -39 -185 -117 -197 -128
-7 -6 -18 -15 -25 -21 -94 -71 -139 -108 -167 -134 -18 -17 -37 -31 -42 -31
-5 0 -9 -6 -10 -12 0 -7 -27 -35 -59 -63 -32 -27 -59 -53 -59 -57 -1 -4 -11
-18 -24 -30 -47 -49 -109 -124 -125 -150 -9 -16 -20 -28 -24 -28 -4 0 -8 -7
-8 -15 0 -8 -4 -15 -8 -15 -8 0 -94 -130 -146 -220 -93 -161 -210 -448 -240
-591 -3 -13 -10 -44 -17 -69 -13 -56 -16 -68 -23 -116 -4 -22 -8 -46 -11 -54
-27 -103 -27 -572 0 -730 20 -113 38 -199 46 -225 5 -16 18 -64 29 -105 12
-41 25 -84 29 -95 5 -11 14 -36 21 -55 7 -19 19 -51 28 -70 8 -19 15 -37 15
-40 0 -3 8 -21 18 -40 11 -19 19 -38 19 -42 0 -4 13 -30 30 -58 16 -28 30 -57
30 -65 0 -7 4 -15 8 -17 4 -1 21 -25 36 -53 41 -71 118 -186 139 -207 9 -10
17 -21 17 -26 0 -4 10 -18 23 -32 12 -14 45 -52 72 -85 64 -76 195 -207 264
-265 30 -25 59 -49 65 -55 34 -31 271 -195 282 -195 2 0 21 -10 42 -23 65 -41
281 -147 299 -147 3 0 19 -7 36 -15 63 -29 300 -101 398 -120 82 -16 205 -36
249 -40 88 -8 142 -15 151 -21 5 -3 9 1 9 8 0 8 3 9 8 3 7 -10 200 -12 297 -2
94 9 160 17 180 21 11 2 40 7 65 10 44 6 65 10 125 22 131 26 367 104 500 165
28 12 52 23 55 24 15 4 109 51 130 65 14 10 66 41 115 70 92 55 209 139 305
220 57 48 239 229 278 277 65 79 172 223 172 232 0 5 4 11 8 13 11 4 102 157
142 238 17 36 36 73 41 82 26 50 95 237 124 338 41 144 65 264 83 410 8 68 7
480 -2 535 -3 22 -7 56 -10 75 -7 59 -23 145 -26 145 -1 0 -4 16 -6 35 -3 19
-8 42 -11 50 -3 8 -8 24 -10 35 -6 36 -85 270 -94 280 -5 5 -9 15 -9 22 0 25
-160 339 -180 353 -4 3 -10 14 -14 26 -3 11 -14 29 -24 40 -9 10 -29 37 -43
59 -79 122 -275 339 -389 433 -18 15 -43 36 -55 48 -48 48 -281 206 -384 262
-90 49 -216 109 -241 117 -3 1 -23 9 -45 19 -37 16 -200 73 -235 81 -8 2 -44
11 -80 20 -36 8 -78 19 -95 24 -16 5 -52 12 -78 16 -27 3 -59 9 -70 11 -12 3
-35 7 -52 10 -33 6 -601 13 -625 8z"/>
</g>
</svg>
